<?xml version="1.0" encoding="UTF-8" standalone="no"?>
<!DOCTYPE svg PUBLIC "-//W3C//DTD SVG 1.1//EN"
 "http://www.w3.org/Graphics/SVG/1.1/DTD/svg11.dtd">
<!-- Generated by graphviz version 2.47.0 (20210316.0004)
 -->
<!-- Title: dependencies Pages: 1 -->
<svg width="1503pt" height="211pt"
 viewBox="0.00 0.00 1503.00 211.00" xmlns="http://www.w3.org/2000/svg" xmlns:xlink="http://www.w3.org/1999/xlink">
<g id="graph0" class="graph" transform="scale(1 1) rotate(0) translate(4 207)">
<title>dependencies</title>
<polygon fill="white" stroke="transparent" points="-4,4 -4,-207 1499,-207 1499,4 -4,4"/>
<text text-anchor="start" x="726.51" y="-42.4" font-family="Times-12" font-weight="bold" font-size="14.00">Legend</text>
<polygon fill="#ffffb3" stroke="transparent" points="513.5,-10 513.5,-30 533.5,-30 533.5,-10 513.5,-10"/>
<text text-anchor="start" x="537.13" y="-15.4" font-family="Times-12" font-size="14.00"> &#160;Declarations</text>
<polygon fill="#8dd3c7" stroke="transparent" points="626.5,-10 626.5,-30 646.5,-30 646.5,-10 626.5,-10"/>
<text text-anchor="start" x="650.23" y="-15.4" font-family="Times-12" font-size="14.00"> &#160;Module</text>
<polygon fill="#80b1d3" stroke="transparent" points="712.5,-10 712.5,-30 732.5,-30 732.5,-10 712.5,-10"/>
<text text-anchor="start" x="736.28" y="-15.4" font-family="Times-12" font-size="14.00"> &#160;Bootstrap</text>
<polygon fill="#fdb462" stroke="transparent" points="809.5,-10 809.5,-30 829.5,-30 829.5,-10 809.5,-10"/>
<text text-anchor="start" x="833.17" y="-15.4" font-family="Times-12" font-size="14.00"> &#160;Providers</text>
<polygon fill="#fb8072" stroke="transparent" points="905.5,-10 905.5,-30 925.5,-30 925.5,-10 905.5,-10"/>
<text text-anchor="start" x="929.23" y="-15.4" font-family="Times-12" font-size="14.00"> &#160;Exports</text>
<g id="clust1" class="cluster">
<title>cluster_AppModule</title>
<polygon fill="none" stroke="black" stroke-dasharray="1,5" points="8,-70 8,-195 1487,-195 1487,-70 8,-70"/>
</g>
<g id="clust3" class="cluster">
<title>cluster_AppModule_imports</title>
<polygon fill="none" stroke="black" points="154,-78 154,-130 1479,-130 1479,-78 154,-78"/>
</g>
<g id="clust6" class="cluster">
<title>cluster_AppModule_providers</title>
<polygon fill="none" stroke="black" points="16,-78 16,-130 146,-130 146,-78 16,-78"/>
</g>
<!-- AuthModule -->
<g id="node1" class="node">
<title>AuthModule</title>
<polygon fill="#8dd3c7" stroke="black" points="1470.55,-122 1467.55,-126 1446.55,-126 1443.55,-122 1383.45,-122 1383.45,-86 1470.55,-86 1470.55,-122"/>
<text text-anchor="middle" x="1427" y="-99.8" font-family="Times,serif" font-size="14.00">AuthModule</text>
</g>
<!-- AppModule -->
<g id="node12" class="node">
<title>AppModule</title>
<polygon fill="#8dd3c7" stroke="black" points="811.66,-187 808.66,-191 787.66,-191 784.66,-187 728.34,-187 728.34,-151 811.66,-151 811.66,-187"/>
<text text-anchor="middle" x="770" y="-164.8" font-family="Times,serif" font-size="14.00">AppModule</text>
</g>
<!-- AuthModule&#45;&gt;AppModule -->
<g id="edge1" class="edge">
<title>AuthModule&#45;&gt;AppModule</title>
<path fill="none" stroke="black" d="M1427,-122.09C1427,-145.13 1427,-182 1427,-182 1427,-182 821.85,-182 821.85,-182"/>
<polygon fill="black" stroke="black" points="821.85,-178.5 811.85,-182 821.85,-185.5 821.85,-178.5"/>
</g>
<!-- CompaniesModule -->
<g id="node2" class="node">
<title>CompaniesModule</title>
<polygon fill="#8dd3c7" stroke="black" points="1365.04,-122 1362.04,-126 1341.04,-126 1338.04,-122 1242.96,-122 1242.96,-86 1365.04,-86 1365.04,-122"/>
<text text-anchor="middle" x="1304" y="-99.8" font-family="Times,serif" font-size="14.00">CompaniesModule</text>
</g>
<!-- CompaniesModule&#45;&gt;AppModule -->
<g id="edge2" class="edge">
<title>CompaniesModule&#45;&gt;AppModule</title>
<path fill="none" stroke="black" d="M1304,-122.28C1304,-143.32 1304,-175 1304,-175 1304,-175 821.9,-175 821.9,-175"/>
<polygon fill="black" stroke="black" points="821.9,-171.5 811.9,-175 821.9,-178.5 821.9,-171.5"/>
</g>
<!-- DatabasesModule -->
<g id="node3" class="node">
<title>DatabasesModule</title>
<polygon fill="#8dd3c7" stroke="black" points="1225.29,-122 1222.29,-126 1201.29,-126 1198.29,-122 1108.71,-122 1108.71,-86 1225.29,-86 1225.29,-122"/>
<text text-anchor="middle" x="1167" y="-99.8" font-family="Times,serif" font-size="14.00">DatabasesModule</text>
</g>
<!-- DatabasesModule&#45;&gt;AppModule -->
<g id="edge3" class="edge">
<title>DatabasesModule&#45;&gt;AppModule</title>
<path fill="none" stroke="black" d="M1167,-122.11C1167,-141.34 1167,-169 1167,-169 1167,-169 821.74,-169 821.74,-169"/>
<polygon fill="black" stroke="black" points="821.74,-165.5 811.74,-169 821.74,-172.5 821.74,-165.5"/>
</g>
<!-- FilesModule -->
<g id="node4" class="node">
<title>FilesModule</title>
<polygon fill="#8dd3c7" stroke="black" points="1090.27,-122 1087.27,-126 1066.27,-126 1063.27,-122 1003.73,-122 1003.73,-86 1090.27,-86 1090.27,-122"/>
<text text-anchor="middle" x="1047" y="-99.8" font-family="Times,serif" font-size="14.00">FilesModule</text>
</g>
<!-- FilesModule&#45;&gt;AppModule -->
<g id="edge4" class="edge">
<title>FilesModule&#45;&gt;AppModule</title>
<path fill="none" stroke="black" d="M1047,-122.02C1047,-139.37 1047,-163 1047,-163 1047,-163 821.77,-163 821.77,-163"/>
<polygon fill="black" stroke="black" points="821.77,-159.5 811.77,-163 821.77,-166.5 821.77,-159.5"/>
</g>
<!-- JobsModule -->
<g id="node5" class="node">
<title>JobsModule</title>
<polygon fill="#8dd3c7" stroke="black" points="985.44,-122 982.44,-126 961.44,-126 958.44,-122 900.56,-122 900.56,-86 985.44,-86 985.44,-122"/>
<text text-anchor="middle" x="943" y="-99.8" font-family="Times,serif" font-size="14.00">JobsModule</text>
</g>
<!-- JobsModule&#45;&gt;AppModule -->
<g id="edge5" class="edge">
<title>JobsModule&#45;&gt;AppModule</title>
<path fill="none" stroke="black" d="M943,-122.24C943,-137.57 943,-157 943,-157 943,-157 821.88,-157 821.88,-157"/>
<polygon fill="black" stroke="black" points="821.88,-153.5 811.88,-157 821.88,-160.5 821.88,-153.5"/>
</g>
<!-- MailerModule -->
<g id="node6" class="node">
<title>MailerModule</title>
<polygon fill="#8dd3c7" stroke="black" points="882.37,-122 879.37,-126 858.37,-126 855.37,-122 785.63,-122 785.63,-86 882.37,-86 882.37,-122"/>
<text text-anchor="middle" x="834" y="-99.8" font-family="Times,serif" font-size="14.00">MailerModule</text>
</g>
<!-- MailerModule&#45;&gt;AppModule -->
<g id="edge6" class="edge">
<title>MailerModule&#45;&gt;AppModule</title>
<path fill="none" stroke="black" d="M798.7,-122.11C798.7,-122.11 798.7,-140.99 798.7,-140.99"/>
<polygon fill="black" stroke="black" points="795.2,-140.99 798.7,-150.99 802.2,-140.99 795.2,-140.99"/>
</g>
<!-- PermissionModule -->
<g id="node7" class="node">
<title>PermissionModule</title>
<polygon fill="#8dd3c7" stroke="black" points="767.77,-122 764.77,-126 743.77,-126 740.77,-122 646.23,-122 646.23,-86 767.77,-86 767.77,-122"/>
<text text-anchor="middle" x="707" y="-99.8" font-family="Times,serif" font-size="14.00">PermissionModule</text>
</g>
<!-- PermissionModule&#45;&gt;AppModule -->
<g id="edge7" class="edge">
<title>PermissionModule&#45;&gt;AppModule</title>
<path fill="none" stroke="black" d="M748.03,-122.11C748.03,-122.11 748.03,-140.99 748.03,-140.99"/>
<polygon fill="black" stroke="black" points="744.53,-140.99 748.03,-150.99 751.53,-140.99 744.53,-140.99"/>
</g>
<!-- ResumesModule -->
<g id="node8" class="node">
<title>ResumesModule</title>
<polygon fill="#8dd3c7" stroke="black" points="628.1,-122 625.1,-126 604.1,-126 601.1,-122 517.9,-122 517.9,-86 628.1,-86 628.1,-122"/>
<text text-anchor="middle" x="573" y="-99.8" font-family="Times,serif" font-size="14.00">ResumesModule</text>
</g>
<!-- ResumesModule&#45;&gt;AppModule -->
<g id="edge8" class="edge">
<title>ResumesModule&#45;&gt;AppModule</title>
<path fill="none" stroke="black" d="M573,-122.24C573,-137.57 573,-157 573,-157 573,-157 718.22,-157 718.22,-157"/>
<polygon fill="black" stroke="black" points="718.22,-160.5 728.22,-157 718.22,-153.5 718.22,-160.5"/>
</g>
<!-- RolesModule -->
<g id="node9" class="node">
<title>RolesModule</title>
<polygon fill="#8dd3c7" stroke="black" points="499.94,-122 496.94,-126 475.94,-126 472.94,-122 408.06,-122 408.06,-86 499.94,-86 499.94,-122"/>
<text text-anchor="middle" x="454" y="-99.8" font-family="Times,serif" font-size="14.00">RolesModule</text>
</g>
<!-- RolesModule&#45;&gt;AppModule -->
<g id="edge9" class="edge">
<title>RolesModule&#45;&gt;AppModule</title>
<path fill="none" stroke="black" d="M454,-122.02C454,-139.37 454,-163 454,-163 454,-163 718.04,-163 718.04,-163"/>
<polygon fill="black" stroke="black" points="718.04,-166.5 728.04,-163 718.04,-159.5 718.04,-166.5"/>
</g>
<!-- SubscribersModule -->
<g id="node10" class="node">
<title>SubscribersModule</title>
<polygon fill="#8dd3c7" stroke="black" points="390.36,-122 387.36,-126 366.36,-126 363.36,-122 265.64,-122 265.64,-86 390.36,-86 390.36,-122"/>
<text text-anchor="middle" x="328" y="-99.8" font-family="Times,serif" font-size="14.00">SubscribersModule</text>
</g>
<!-- SubscribersModule&#45;&gt;AppModule -->
<g id="edge10" class="edge">
<title>SubscribersModule&#45;&gt;AppModule</title>
<path fill="none" stroke="black" d="M328,-122.11C328,-141.34 328,-169 328,-169 328,-169 718.02,-169 718.02,-169"/>
<polygon fill="black" stroke="black" points="718.02,-172.5 728.02,-169 718.02,-165.5 718.02,-172.5"/>
</g>
<!-- UserModule -->
<g id="node11" class="node">
<title>UserModule</title>
<polygon fill="#8dd3c7" stroke="black" points="247.98,-122 244.98,-126 223.98,-126 220.98,-122 162.02,-122 162.02,-86 247.98,-86 247.98,-122"/>
<text text-anchor="middle" x="205" y="-99.8" font-family="Times,serif" font-size="14.00">UserModule</text>
</g>
<!-- UserModule&#45;&gt;AppModule -->
<g id="edge11" class="edge">
<title>UserModule&#45;&gt;AppModule</title>
<path fill="none" stroke="black" d="M205,-122.28C205,-143.32 205,-175 205,-175 205,-175 717.99,-175 717.99,-175"/>
<polygon fill="black" stroke="black" points="717.99,-178.5 727.99,-175 717.99,-171.5 717.99,-178.5"/>
</g>
<!-- AppService -->
<g id="node13" class="node">
<title>AppService</title>
<ellipse fill="#fdb462" stroke="black" cx="81" cy="-104" rx="56.74" ry="18"/>
<text text-anchor="middle" x="81" y="-99.8" font-family="Times,serif" font-size="14.00">AppService</text>
</g>
<!-- AppService&#45;&gt;AppModule -->
<g id="edge12" class="edge">
<title>AppService&#45;&gt;AppModule</title>
<path fill="none" stroke="black" d="M81,-122.09C81,-145.13 81,-182 81,-182 81,-182 718.19,-182 718.19,-182"/>
<polygon fill="black" stroke="black" points="718.19,-185.5 728.19,-182 718.19,-178.5 718.19,-185.5"/>
</g>
</g>
</svg>
