<?xml version="1.0" encoding="UTF-8" standalone="no"?>
<!DOCTYPE svg PUBLIC "-//W3C//DTD SVG 1.1//EN"
 "http://www.w3.org/Graphics/SVG/1.1/DTD/svg11.dtd">
<!-- Generated by graphviz version 2.47.0 (20210316.0004)
 -->
<!-- Title: dependencies Pages: 1 -->
<svg width="2854pt" height="363pt"
 viewBox="0.00 0.00 2854.00 363.00" xmlns="http://www.w3.org/2000/svg" xmlns:xlink="http://www.w3.org/1999/xlink">
<g id="graph0" class="graph" transform="scale(1 1) rotate(0) translate(4 359)">
<title>dependencies</title>
<polygon fill="white" stroke="transparent" points="-4,4 -4,-359 2850,-359 2850,4 -4,4"/>
<text text-anchor="start" x="1402.01" y="-42.4" font-family="Times-12" font-weight="bold" font-size="14.00">Legend</text>
<polygon fill="#ffffb3" stroke="transparent" points="1189,-10 1189,-30 1209,-30 1209,-10 1189,-10"/>
<text text-anchor="start" x="1212.63" y="-15.4" font-family="Times-12" font-size="14.00"> &#160;Declarations</text>
<polygon fill="#8dd3c7" stroke="transparent" points="1302,-10 1302,-30 1322,-30 1322,-10 1302,-10"/>
<text text-anchor="start" x="1325.73" y="-15.4" font-family="Times-12" font-size="14.00"> &#160;Module</text>
<polygon fill="#80b1d3" stroke="transparent" points="1388,-10 1388,-30 1408,-30 1408,-10 1388,-10"/>
<text text-anchor="start" x="1411.78" y="-15.4" font-family="Times-12" font-size="14.00"> &#160;Bootstrap</text>
<polygon fill="#fdb462" stroke="transparent" points="1485,-10 1485,-30 1505,-30 1505,-10 1485,-10"/>
<text text-anchor="start" x="1508.67" y="-15.4" font-family="Times-12" font-size="14.00"> &#160;Providers</text>
<polygon fill="#fb8072" stroke="transparent" points="1581,-10 1581,-30 1601,-30 1601,-10 1581,-10"/>
<text text-anchor="start" x="1604.73" y="-15.4" font-family="Times-12" font-size="14.00"> &#160;Exports</text>
<g id="clust1" class="cluster">
<title>cluster_AppModule</title>
<polygon fill="none" stroke="black" stroke-dasharray="1,5" points="560,-146 560,-347 1934,-347 1934,-146 560,-146"/>
</g>
<g id="clust3" class="cluster">
<title>cluster_AppModule_imports</title>
<polygon fill="none" stroke="black" points="706,-154 706,-282 1926,-282 1926,-154 706,-154"/>
</g>
<g id="clust6" class="cluster">
<title>cluster_AppModule_providers</title>
<polygon fill="none" stroke="black" points="568,-230 568,-282 698,-282 698,-230 568,-230"/>
</g>
<g id="clust7" class="cluster">
<title>cluster_AuthModule</title>
<polygon fill="none" stroke="black" stroke-dasharray="1,5" points="8,-146 8,-214 552,-214 552,-146 8,-146"/>
</g>
<g id="clust10" class="cluster">
<title>cluster_AuthModule_exports</title>
<polygon fill="none" stroke="black" points="438,-154 438,-206 544,-206 544,-154 438,-154"/>
</g>
<g id="clust12" class="cluster">
<title>cluster_AuthModule_providers</title>
<polygon fill="none" stroke="black" points="16,-154 16,-206 430,-206 430,-154 16,-154"/>
</g>
<g id="clust13" class="cluster">
<title>cluster_CompaniesModule</title>
<polygon fill="none" stroke="black" stroke-dasharray="1,5" points="1942,-222 1942,-290 2288,-290 2288,-222 1942,-222"/>
</g>
<g id="clust16" class="cluster">
<title>cluster_CompaniesModule_exports</title>
<polygon fill="none" stroke="black" points="2140,-230 2140,-282 2280,-282 2280,-230 2140,-230"/>
</g>
<g id="clust18" class="cluster">
<title>cluster_CompaniesModule_providers</title>
<polygon fill="none" stroke="black" points="1950,-230 1950,-282 2132,-282 2132,-230 1950,-230"/>
</g>
<g id="clust19" class="cluster">
<title>cluster_DatabasesModule</title>
<polygon fill="none" stroke="black" stroke-dasharray="1,5" points="454,-70 454,-138 644,-138 644,-70 454,-70"/>
</g>
<g id="clust24" class="cluster">
<title>cluster_DatabasesModule_providers</title>
<polygon fill="none" stroke="black" points="462,-78 462,-130 636,-130 636,-78 462,-78"/>
</g>
<g id="clust25" class="cluster">
<title>cluster_FilesModule</title>
<polygon fill="none" stroke="black" stroke-dasharray="1,5" points="652,-70 652,-138 802,-138 802,-70 652,-70"/>
</g>
<g id="clust30" class="cluster">
<title>cluster_FilesModule_providers</title>
<polygon fill="none" stroke="black" points="660,-78 660,-130 794,-130 794,-78 660,-78"/>
</g>
<g id="clust31" class="cluster">
<title>cluster_JobsModule</title>
<polygon fill="none" stroke="black" stroke-dasharray="1,5" points="810,-70 810,-138 956,-138 956,-70 810,-70"/>
</g>
<g id="clust36" class="cluster">
<title>cluster_JobsModule_providers</title>
<polygon fill="none" stroke="black" points="818,-78 818,-130 948,-130 948,-78 818,-78"/>
</g>
<g id="clust37" class="cluster">
<title>cluster_MailerModule</title>
<polygon fill="none" stroke="black" stroke-dasharray="1,5" points="964,-70 964,-138 1206,-138 1206,-70 964,-70"/>
</g>
<g id="clust39" class="cluster">
<title>cluster_MailerModule_imports</title>
<polygon fill="none" stroke="black" points="1128,-78 1128,-130 1198,-130 1198,-78 1128,-78"/>
</g>
<g id="clust42" class="cluster">
<title>cluster_MailerModule_providers</title>
<polygon fill="none" stroke="black" points="972,-78 972,-130 1120,-130 1120,-78 972,-78"/>
</g>
<g id="clust43" class="cluster">
<title>cluster_PermissionModule</title>
<polygon fill="none" stroke="black" stroke-dasharray="1,5" points="1214,-70 1214,-138 1412,-138 1412,-70 1214,-70"/>
</g>
<g id="clust48" class="cluster">
<title>cluster_PermissionModule_providers</title>
<polygon fill="none" stroke="black" points="1222,-78 1222,-130 1404,-130 1404,-78 1222,-78"/>
</g>
<g id="clust49" class="cluster">
<title>cluster_ResumesModule</title>
<polygon fill="none" stroke="black" stroke-dasharray="1,5" points="1420,-70 1420,-138 1602,-138 1602,-70 1420,-70"/>
</g>
<g id="clust54" class="cluster">
<title>cluster_ResumesModule_providers</title>
<polygon fill="none" stroke="black" points="1428,-78 1428,-130 1594,-130 1594,-78 1428,-78"/>
</g>
<g id="clust55" class="cluster">
<title>cluster_RolesModule</title>
<polygon fill="none" stroke="black" stroke-dasharray="1,5" points="2296,-222 2296,-290 2570,-290 2570,-222 2296,-222"/>
</g>
<g id="clust58" class="cluster">
<title>cluster_RolesModule_exports</title>
<polygon fill="none" stroke="black" points="2452,-230 2452,-282 2562,-282 2562,-230 2452,-230"/>
</g>
<g id="clust60" class="cluster">
<title>cluster_RolesModule_providers</title>
<polygon fill="none" stroke="black" points="2304,-230 2304,-282 2444,-282 2444,-230 2304,-230"/>
</g>
<g id="clust61" class="cluster">
<title>cluster_SubscribersModule</title>
<polygon fill="none" stroke="black" stroke-dasharray="1,5" points="1610,-70 1610,-138 1812,-138 1812,-70 1610,-70"/>
</g>
<g id="clust66" class="cluster">
<title>cluster_SubscribersModule_providers</title>
<polygon fill="none" stroke="black" points="1618,-78 1618,-130 1804,-130 1804,-78 1618,-78"/>
</g>
<g id="clust67" class="cluster">
<title>cluster_UserModule</title>
<polygon fill="none" stroke="black" stroke-dasharray="1,5" points="2578,-222 2578,-290 2838,-290 2838,-222 2578,-222"/>
</g>
<g id="clust70" class="cluster">
<title>cluster_UserModule_exports</title>
<polygon fill="none" stroke="black" points="2726,-230 2726,-282 2830,-282 2830,-230 2726,-230"/>
</g>
<g id="clust72" class="cluster">
<title>cluster_UserModule_providers</title>
<polygon fill="none" stroke="black" points="2586,-230 2586,-282 2718,-282 2718,-230 2586,-230"/>
</g>
<!-- AuthModule -->
<g id="node1" class="node">
<title>AuthModule</title>
<polygon fill="#8dd3c7" stroke="black" points="801.55,-274 798.55,-278 777.55,-278 774.55,-274 714.45,-274 714.45,-238 801.55,-238 801.55,-274"/>
<text text-anchor="middle" x="758" y="-251.8" font-family="Times,serif" font-size="14.00">AuthModule</text>
</g>
<!-- AppModule -->
<g id="node12" class="node">
<title>AppModule</title>
<polygon fill="#8dd3c7" stroke="black" points="1209.66,-339 1206.66,-343 1185.66,-343 1182.66,-339 1126.34,-339 1126.34,-303 1209.66,-303 1209.66,-339"/>
<text text-anchor="middle" x="1168" y="-316.8" font-family="Times,serif" font-size="14.00">AppModule</text>
</g>
<!-- AuthModule&#45;&gt;AppModule -->
<g id="edge1" class="edge">
<title>AuthModule&#45;&gt;AppModule</title>
<path fill="none" stroke="black" d="M801.64,-260C900.95,-260 1135.26,-260 1135.26,-260 1135.26,-260 1135.26,-292.7 1135.26,-292.7"/>
<polygon fill="black" stroke="black" points="1131.76,-292.7 1135.26,-302.7 1138.76,-292.7 1131.76,-292.7"/>
</g>
<!-- AuthService  -->
<g id="node14" class="node">
<title>AuthService </title>
<polygon fill="#fb8072" stroke="black" points="535.98,-198 446.02,-198 446.02,-162 535.98,-162 535.98,-198"/>
<text text-anchor="middle" x="491" y="-175.8" font-family="Times,serif" font-size="14.00">AuthService </text>
</g>
<!-- AuthModule&#45;&gt;AuthService  -->
<g id="edge15" class="edge">
<title>AuthModule&#45;&gt;AuthService </title>
<path fill="none" stroke="black" stroke-dasharray="5,2" d="M714.22,-256C706.96,-256 701.74,-256 701.74,-256 701.74,-256 701.74,-186 701.74,-186 701.74,-186 545.95,-186 545.95,-186"/>
<polygon fill="black" stroke="black" points="545.95,-182.5 535.95,-186 545.95,-189.5 545.95,-182.5"/>
</g>
<!-- CompaniesModule -->
<g id="node2" class="node">
<title>CompaniesModule</title>
<polygon fill="#8dd3c7" stroke="black" points="1704.04,-198 1701.04,-202 1680.04,-202 1677.04,-198 1581.96,-198 1581.96,-162 1704.04,-162 1704.04,-198"/>
<text text-anchor="middle" x="1643" y="-175.8" font-family="Times,serif" font-size="14.00">CompaniesModule</text>
</g>
<!-- CompaniesModule&#45;&gt;AppModule -->
<g id="edge2" class="edge">
<title>CompaniesModule&#45;&gt;AppModule</title>
<path fill="none" stroke="black" d="M1643,-198.14C1643,-236.23 1643,-321 1643,-321 1643,-321 1219.74,-321 1219.74,-321"/>
<polygon fill="black" stroke="black" points="1219.74,-317.5 1209.74,-321 1219.74,-324.5 1219.74,-317.5"/>
</g>
<!-- CompaniesService  -->
<g id="node18" class="node">
<title>CompaniesService </title>
<polygon fill="#fb8072" stroke="black" points="2272.47,-274 2147.53,-274 2147.53,-238 2272.47,-238 2272.47,-274"/>
<text text-anchor="middle" x="2210" y="-251.8" font-family="Times,serif" font-size="14.00">CompaniesService </text>
</g>
<!-- CompaniesModule&#45;&gt;CompaniesService  -->
<g id="edge19" class="edge">
<title>CompaniesModule&#45;&gt;CompaniesService </title>
<path fill="none" stroke="black" stroke-dasharray="5,2" d="M1612.36,-198.42C1612.36,-207.28 1612.36,-216 1612.36,-216 1612.36,-216 2210,-216 2210,-216 2210,-216 2210,-227.87 2210,-227.87"/>
<polygon fill="black" stroke="black" points="2206.5,-227.87 2210,-237.87 2213.5,-227.87 2206.5,-227.87"/>
</g>
<!-- DatabasesModule -->
<g id="node3" class="node">
<title>DatabasesModule</title>
<polygon fill="#8dd3c7" stroke="black" points="830.29,-198 827.29,-202 806.29,-202 803.29,-198 713.71,-198 713.71,-162 830.29,-162 830.29,-198"/>
<text text-anchor="middle" x="772" y="-175.8" font-family="Times,serif" font-size="14.00">DatabasesModule</text>
</g>
<!-- DatabasesModule&#45;&gt;AppModule -->
<g id="edge3" class="edge">
<title>DatabasesModule&#45;&gt;AppModule</title>
<path fill="none" stroke="black" d="M815.96,-198.07C815.96,-236.94 815.96,-325 815.96,-325 815.96,-325 1116.23,-325 1116.23,-325"/>
<polygon fill="black" stroke="black" points="1116.23,-328.5 1126.23,-325 1116.23,-321.5 1116.23,-328.5"/>
</g>
<!-- FilesModule -->
<g id="node4" class="node">
<title>FilesModule</title>
<polygon fill="#8dd3c7" stroke="black" points="935.27,-198 932.27,-202 911.27,-202 908.27,-198 848.73,-198 848.73,-162 935.27,-162 935.27,-198"/>
<text text-anchor="middle" x="892" y="-175.8" font-family="Times,serif" font-size="14.00">FilesModule</text>
</g>
<!-- FilesModule&#45;&gt;AppModule -->
<g id="edge4" class="edge">
<title>FilesModule&#45;&gt;AppModule</title>
<path fill="none" stroke="black" d="M892,-198.04C892,-235.45 892,-318 892,-318 892,-318 1116.08,-318 1116.08,-318"/>
<polygon fill="black" stroke="black" points="1116.08,-321.5 1126.08,-318 1116.08,-314.5 1116.08,-321.5"/>
</g>
<!-- JobsModule -->
<g id="node5" class="node">
<title>JobsModule</title>
<polygon fill="#8dd3c7" stroke="black" points="1038.44,-198 1035.44,-202 1014.44,-202 1011.44,-198 953.56,-198 953.56,-162 1038.44,-162 1038.44,-198"/>
<text text-anchor="middle" x="996" y="-175.8" font-family="Times,serif" font-size="14.00">JobsModule</text>
</g>
<!-- JobsModule&#45;&gt;AppModule -->
<g id="edge5" class="edge">
<title>JobsModule&#45;&gt;AppModule</title>
<path fill="none" stroke="black" d="M996,-198.21C996,-234.21 996,-311 996,-311 996,-311 1115.92,-311 1115.92,-311"/>
<polygon fill="black" stroke="black" points="1115.92,-314.5 1125.92,-311 1115.92,-307.5 1115.92,-314.5"/>
</g>
<!-- MailerModule -->
<g id="node6" class="node">
<title>MailerModule</title>
<polygon fill="#8dd3c7" stroke="black" points="1153.37,-198 1150.37,-202 1129.37,-202 1126.37,-198 1056.63,-198 1056.63,-162 1153.37,-162 1153.37,-198"/>
<text text-anchor="middle" x="1105" y="-175.8" font-family="Times,serif" font-size="14.00">MailerModule</text>
</g>
<!-- MailerModule&#45;&gt;AppModule -->
<g id="edge6" class="edge">
<title>MailerModule&#45;&gt;AppModule</title>
<path fill="none" stroke="black" d="M1144.35,-198.14C1144.35,-198.14 1144.35,-292.93 1144.35,-292.93"/>
<polygon fill="black" stroke="black" points="1140.85,-292.92 1144.35,-302.93 1147.85,-292.93 1140.85,-292.92"/>
</g>
<!-- PermissionModule -->
<g id="node7" class="node">
<title>PermissionModule</title>
<polygon fill="#8dd3c7" stroke="black" points="1292.77,-198 1289.77,-202 1268.77,-202 1265.77,-198 1171.23,-198 1171.23,-162 1292.77,-162 1292.77,-198"/>
<text text-anchor="middle" x="1232" y="-175.8" font-family="Times,serif" font-size="14.00">PermissionModule</text>
</g>
<!-- PermissionModule&#45;&gt;AppModule -->
<g id="edge7" class="edge">
<title>PermissionModule&#45;&gt;AppModule</title>
<path fill="none" stroke="black" d="M1190.47,-198.14C1190.47,-198.14 1190.47,-292.93 1190.47,-292.93"/>
<polygon fill="black" stroke="black" points="1186.97,-292.92 1190.47,-302.93 1193.97,-292.93 1186.97,-292.92"/>
</g>
<!-- ResumesModule -->
<g id="node8" class="node">
<title>ResumesModule</title>
<polygon fill="#8dd3c7" stroke="black" points="1421.1,-198 1418.1,-202 1397.1,-202 1394.1,-198 1310.9,-198 1310.9,-162 1421.1,-162 1421.1,-198"/>
<text text-anchor="middle" x="1366" y="-175.8" font-family="Times,serif" font-size="14.00">ResumesModule</text>
</g>
<!-- ResumesModule&#45;&gt;AppModule -->
<g id="edge8" class="edge">
<title>ResumesModule&#45;&gt;AppModule</title>
<path fill="none" stroke="black" d="M1366,-198.21C1366,-233.77 1366,-309 1366,-309 1366,-309 1219.99,-309 1219.99,-309"/>
<polygon fill="black" stroke="black" points="1219.99,-305.5 1209.99,-309 1219.99,-312.5 1219.99,-305.5"/>
</g>
<!-- RolesModule -->
<g id="node9" class="node">
<title>RolesModule</title>
<polygon fill="#8dd3c7" stroke="black" points="1813.94,-198 1810.94,-202 1789.94,-202 1786.94,-198 1722.06,-198 1722.06,-162 1813.94,-162 1813.94,-198"/>
<text text-anchor="middle" x="1768" y="-175.8" font-family="Times,serif" font-size="14.00">RolesModule</text>
</g>
<!-- RolesModule&#45;&gt;AuthModule -->
<g id="edge13" class="edge">
<title>RolesModule&#45;&gt;AuthModule</title>
<path fill="none" stroke="black" d="M1740.57,-198.03C1740.57,-217.58 1740.57,-246 1740.57,-246 1740.57,-246 811.81,-246 811.81,-246"/>
<polygon fill="black" stroke="black" points="811.81,-242.5 801.81,-246 811.81,-249.5 811.81,-242.5"/>
</g>
<!-- RolesModule&#45;&gt;AppModule -->
<g id="edge9" class="edge">
<title>RolesModule&#45;&gt;AppModule</title>
<path fill="none" stroke="black" d="M1777.14,-198.03C1777.14,-237.28 1777.14,-327 1777.14,-327 1777.14,-327 1219.87,-327 1219.87,-327"/>
<polygon fill="black" stroke="black" points="1219.87,-323.5 1209.87,-327 1219.87,-330.5 1219.87,-323.5"/>
</g>
<!-- RolesService  -->
<g id="node27" class="node">
<title>RolesService </title>
<polygon fill="#fb8072" stroke="black" points="2553.86,-274 2460.14,-274 2460.14,-238 2553.86,-238 2553.86,-274"/>
<text text-anchor="middle" x="2507" y="-251.8" font-family="Times,serif" font-size="14.00">RolesService </text>
</g>
<!-- RolesModule&#45;&gt;RolesService  -->
<g id="edge28" class="edge">
<title>RolesModule&#45;&gt;RolesService </title>
<path fill="none" stroke="black" stroke-dasharray="5,2" d="M1758.86,-198.19C1758.86,-201.54 1758.86,-204 1758.86,-204 1758.86,-204 2507,-204 2507,-204 2507,-204 2507,-227.81 2507,-227.81"/>
<polygon fill="black" stroke="black" points="2503.5,-227.81 2507,-237.81 2510.5,-227.81 2503.5,-227.81"/>
</g>
<!-- SubscribersModule -->
<g id="node10" class="node">
<title>SubscribersModule</title>
<polygon fill="#8dd3c7" stroke="black" points="1563.36,-198 1560.36,-202 1539.36,-202 1536.36,-198 1438.64,-198 1438.64,-162 1563.36,-162 1563.36,-198"/>
<text text-anchor="middle" x="1501" y="-175.8" font-family="Times,serif" font-size="14.00">SubscribersModule</text>
</g>
<!-- SubscribersModule&#45;&gt;AppModule -->
<g id="edge10" class="edge">
<title>SubscribersModule&#45;&gt;AppModule</title>
<path fill="none" stroke="black" d="M1501,-198.21C1501,-235.06 1501,-315 1501,-315 1501,-315 1219.84,-315 1219.84,-315"/>
<polygon fill="black" stroke="black" points="1219.84,-311.5 1209.84,-315 1219.84,-318.5 1219.84,-311.5"/>
</g>
<!-- UserModule -->
<g id="node11" class="node">
<title>UserModule</title>
<polygon fill="#8dd3c7" stroke="black" points="1917.98,-198 1914.98,-202 1893.98,-202 1890.98,-198 1832.02,-198 1832.02,-162 1917.98,-162 1917.98,-198"/>
<text text-anchor="middle" x="1875" y="-175.8" font-family="Times,serif" font-size="14.00">UserModule</text>
</g>
<!-- UserModule&#45;&gt;AuthModule -->
<g id="edge14" class="edge">
<title>UserModule&#45;&gt;AuthModule</title>
<path fill="none" stroke="black" d="M1860.67,-198.04C1860.67,-219.66 1860.67,-253 1860.67,-253 1860.67,-253 811.57,-253 811.57,-253"/>
<polygon fill="black" stroke="black" points="811.57,-249.5 801.57,-253 811.57,-256.5 811.57,-249.5"/>
</g>
<!-- UserModule&#45;&gt;AppModule -->
<g id="edge11" class="edge">
<title>UserModule&#45;&gt;AppModule</title>
<path fill="none" stroke="black" d="M1889.33,-198.27C1889.33,-239.06 1889.33,-334 1889.33,-334 1889.33,-334 1219.9,-334 1219.9,-334"/>
<polygon fill="black" stroke="black" points="1219.9,-330.5 1209.9,-334 1219.9,-337.5 1219.9,-330.5"/>
</g>
<!-- UserService  -->
<g id="node30" class="node">
<title>UserService </title>
<polygon fill="#fb8072" stroke="black" points="2821.9,-274 2734.1,-274 2734.1,-238 2821.9,-238 2821.9,-274"/>
<text text-anchor="middle" x="2778" y="-251.8" font-family="Times,serif" font-size="14.00">UserService </text>
</g>
<!-- UserModule&#45;&gt;UserService  -->
<g id="edge31" class="edge">
<title>UserModule&#45;&gt;UserService </title>
<path fill="none" stroke="black" stroke-dasharray="5,2" d="M1918.25,-174C2098.17,-174 2778,-174 2778,-174 2778,-174 2778,-227.8 2778,-227.8"/>
<polygon fill="black" stroke="black" points="2774.5,-227.8 2778,-237.8 2781.5,-227.8 2774.5,-227.8"/>
</g>
<!-- AppService -->
<g id="node13" class="node">
<title>AppService</title>
<ellipse fill="#fdb462" stroke="black" cx="633" cy="-256" rx="56.74" ry="18"/>
<text text-anchor="middle" x="633" y="-251.8" font-family="Times,serif" font-size="14.00">AppService</text>
</g>
<!-- AppService&#45;&gt;AppModule -->
<g id="edge12" class="edge">
<title>AppService&#45;&gt;AppModule</title>
<path fill="none" stroke="black" d="M633,-274.01C633,-296.49 633,-332 633,-332 633,-332 1116.02,-332 1116.02,-332"/>
<polygon fill="black" stroke="black" points="1116.02,-335.5 1126.02,-332 1116.02,-328.5 1116.02,-335.5"/>
</g>
<!-- AuthService -->
<g id="node15" class="node">
<title>AuthService</title>
<ellipse fill="#fdb462" stroke="black" cx="363" cy="-180" rx="59.11" ry="18"/>
<text text-anchor="middle" x="363" y="-175.8" font-family="Times,serif" font-size="14.00">AuthService</text>
</g>
<!-- AuthService&#45;&gt;AuthModule -->
<g id="edge16" class="edge">
<title>AuthService&#45;&gt;AuthModule</title>
<path fill="none" stroke="black" d="M363,-198.1C363,-209.09 363,-221 363,-221 363,-221 779.89,-221 779.89,-221 779.89,-221 779.89,-227.68 779.89,-227.68"/>
<polygon fill="black" stroke="black" points="776.39,-227.68 779.89,-237.68 783.39,-227.68 776.39,-227.68"/>
</g>
<!-- JwtStrategy -->
<g id="node16" class="node">
<title>JwtStrategy</title>
<ellipse fill="#fdb462" stroke="black" cx="229" cy="-180" rx="56.76" ry="18"/>
<text text-anchor="middle" x="229" y="-175.8" font-family="Times,serif" font-size="14.00">JwtStrategy</text>
</g>
<!-- JwtStrategy&#45;&gt;AuthModule -->
<g id="edge17" class="edge">
<title>JwtStrategy&#45;&gt;AuthModule</title>
<path fill="none" stroke="black" d="M229,-198.04C229,-211.29 229,-227 229,-227 229,-227 758,-227 758,-227 758,-227 758,-228.08 758,-228.08"/>
<polygon fill="black" stroke="black" points="754.5,-227.8 758,-237.8 761.5,-227.8 754.5,-227.8"/>
</g>
<!-- LocalStrategy -->
<g id="node17" class="node">
<title>LocalStrategy</title>
<ellipse fill="#fdb462" stroke="black" cx="89" cy="-180" rx="65.41" ry="18"/>
<text text-anchor="middle" x="89" y="-175.8" font-family="Times,serif" font-size="14.00">LocalStrategy</text>
</g>
<!-- LocalStrategy&#45;&gt;AuthModule -->
<g id="edge18" class="edge">
<title>LocalStrategy&#45;&gt;AuthModule</title>
<path fill="none" stroke="black" d="M89,-198.24C89,-213.57 89,-233 89,-233 89,-233 736.11,-233 736.11,-233 736.11,-233 736.11,-233.49 736.11,-233.49"/>
<polygon fill="black" stroke="black" points="732.61,-227.88 736.11,-237.88 739.61,-227.88 732.61,-227.88"/>
</g>
<!-- CompaniesService -->
<g id="node19" class="node">
<title>CompaniesService</title>
<ellipse fill="#fdb462" stroke="black" cx="2041" cy="-256" rx="83.38" ry="18"/>
<text text-anchor="middle" x="2041" y="-251.8" font-family="Times,serif" font-size="14.00">CompaniesService</text>
</g>
<!-- CompaniesService&#45;&gt;CompaniesModule -->
<g id="edge20" class="edge">
<title>CompaniesService&#45;&gt;CompaniesModule</title>
<path fill="none" stroke="black" d="M1974.9,-267C1869.13,-267 1673.64,-267 1673.64,-267 1673.64,-267 1673.64,-208.03 1673.64,-208.03"/>
<polygon fill="black" stroke="black" points="1677.14,-208.03 1673.64,-198.03 1670.14,-208.03 1677.14,-208.03"/>
</g>
<!-- DatabasesService -->
<g id="node20" class="node">
<title>DatabasesService</title>
<ellipse fill="#fdb462" stroke="black" cx="549" cy="-104" rx="79.27" ry="18"/>
<text text-anchor="middle" x="549" y="-99.8" font-family="Times,serif" font-size="14.00">DatabasesService</text>
</g>
<!-- DatabasesService&#45;&gt;DatabasesModule -->
<g id="edge21" class="edge">
<title>DatabasesService&#45;&gt;DatabasesModule</title>
<path fill="none" stroke="black" d="M602.26,-117.5C602.26,-137.84 602.26,-174 602.26,-174 602.26,-174 703.58,-174 703.58,-174"/>
<polygon fill="black" stroke="black" points="703.58,-177.5 713.58,-174 703.58,-170.5 703.58,-177.5"/>
</g>
<!-- FilesService -->
<g id="node21" class="node">
<title>FilesService</title>
<ellipse fill="#fdb462" stroke="black" cx="727" cy="-104" rx="58.54" ry="18"/>
<text text-anchor="middle" x="727" y="-99.8" font-family="Times,serif" font-size="14.00">FilesService</text>
</g>
<!-- FilesService&#45;&gt;FilesModule -->
<g id="edge22" class="edge">
<title>FilesService&#45;&gt;FilesModule</title>
<path fill="none" stroke="black" d="M749.81,-120.76C749.81,-133.55 749.81,-149 749.81,-149 749.81,-149 892,-149 892,-149 892,-149 892,-151.97 892,-151.97"/>
<polygon fill="black" stroke="black" points="888.5,-151.97 892,-161.97 895.5,-151.97 888.5,-151.97"/>
</g>
<!-- JobsService -->
<g id="node22" class="node">
<title>JobsService</title>
<ellipse fill="#fdb462" stroke="black" cx="883" cy="-104" rx="57.32" ry="18"/>
<text text-anchor="middle" x="883" y="-99.8" font-family="Times,serif" font-size="14.00">JobsService</text>
</g>
<!-- JobsService&#45;&gt;JobsModule -->
<g id="edge23" class="edge">
<title>JobsService&#45;&gt;JobsModule</title>
<path fill="none" stroke="black" d="M940.44,-104C955.21,-104 967.02,-104 967.02,-104 967.02,-104 967.02,-151.99 967.02,-151.99"/>
<polygon fill="black" stroke="black" points="963.52,-151.99 967.02,-161.99 970.52,-151.99 963.52,-151.99"/>
</g>
<!-- Mailer -->
<g id="node23" class="node">
<title>Mailer</title>
<polygon fill="#8dd3c7" stroke="black" points="1190,-122 1187,-126 1166,-126 1163,-122 1136,-122 1136,-86 1190,-86 1190,-122"/>
<text text-anchor="middle" x="1163" y="-99.8" font-family="Times,serif" font-size="14.00">Mailer</text>
</g>
<!-- Mailer&#45;&gt;MailerModule -->
<g id="edge24" class="edge">
<title>Mailer&#45;&gt;MailerModule</title>
<path fill="none" stroke="black" d="M1144.72,-122.01C1144.72,-122.01 1144.72,-151.85 1144.72,-151.85"/>
<polygon fill="black" stroke="black" points="1141.22,-151.85 1144.72,-161.85 1148.22,-151.85 1141.22,-151.85"/>
</g>
<!-- MailerService -->
<g id="node24" class="node">
<title>MailerService</title>
<ellipse fill="#fdb462" stroke="black" cx="1046" cy="-104" rx="65.96" ry="18"/>
<text text-anchor="middle" x="1046" y="-99.8" font-family="Times,serif" font-size="14.00">MailerService</text>
</g>
<!-- MailerService&#45;&gt;MailerModule -->
<g id="edge25" class="edge">
<title>MailerService&#45;&gt;MailerModule</title>
<path fill="none" stroke="black" d="M1084.15,-119.02C1084.15,-119.02 1084.15,-151.8 1084.15,-151.8"/>
<polygon fill="black" stroke="black" points="1080.65,-151.8 1084.15,-161.8 1087.65,-151.8 1080.65,-151.8"/>
</g>
<!-- PermissionService -->
<g id="node25" class="node">
<title>PermissionService</title>
<ellipse fill="#fdb462" stroke="black" cx="1313" cy="-104" rx="82.82" ry="18"/>
<text text-anchor="middle" x="1313" y="-99.8" font-family="Times,serif" font-size="14.00">PermissionService</text>
</g>
<!-- PermissionService&#45;&gt;PermissionModule -->
<g id="edge26" class="edge">
<title>PermissionService&#45;&gt;PermissionModule</title>
<path fill="none" stroke="black" d="M1261.49,-118.3C1261.49,-118.3 1261.49,-151.73 1261.49,-151.73"/>
<polygon fill="black" stroke="black" points="1257.99,-151.73 1261.49,-161.73 1264.99,-151.73 1257.99,-151.73"/>
</g>
<!-- ResumesService -->
<g id="node26" class="node">
<title>ResumesService</title>
<ellipse fill="#fdb462" stroke="black" cx="1511" cy="-104" rx="74.71" ry="18"/>
<text text-anchor="middle" x="1511" y="-99.8" font-family="Times,serif" font-size="14.00">ResumesService</text>
</g>
<!-- ResumesService&#45;&gt;ResumesModule -->
<g id="edge27" class="edge">
<title>ResumesService&#45;&gt;ResumesModule</title>
<path fill="none" stroke="black" d="M1435.95,-104C1420.32,-104 1408.48,-104 1408.48,-104 1408.48,-104 1408.48,-151.99 1408.48,-151.99"/>
<polygon fill="black" stroke="black" points="1404.98,-151.99 1408.48,-161.99 1411.98,-151.99 1404.98,-151.99"/>
</g>
<!-- RolesService -->
<g id="node28" class="node">
<title>RolesService</title>
<ellipse fill="#fdb462" stroke="black" cx="2374" cy="-256" rx="61.97" ry="18"/>
<text text-anchor="middle" x="2374" y="-251.8" font-family="Times,serif" font-size="14.00">RolesService</text>
</g>
<!-- RolesService&#45;&gt;RolesModule -->
<g id="edge29" class="edge">
<title>RolesService&#45;&gt;RolesModule</title>
<path fill="none" stroke="black" d="M2374,-237.82C2374,-224.96 2374,-210 2374,-210 2374,-210 1795.43,-210 1795.43,-210 1795.43,-210 1795.43,-208.14 1795.43,-208.14"/>
<polygon fill="black" stroke="black" points="1798.93,-208.14 1795.43,-198.14 1791.93,-208.14 1798.93,-208.14"/>
</g>
<!-- SubscribersService -->
<g id="node29" class="node">
<title>SubscribersService</title>
<ellipse fill="#fdb462" stroke="black" cx="1711" cy="-104" rx="85.09" ry="18"/>
<text text-anchor="middle" x="1711" y="-99.8" font-family="Times,serif" font-size="14.00">SubscribersService</text>
</g>
<!-- SubscribersService&#45;&gt;SubscribersModule -->
<g id="edge30" class="edge">
<title>SubscribersService&#45;&gt;SubscribersModule</title>
<path fill="none" stroke="black" d="M1665.11,-119.25C1665.11,-127.49 1665.11,-136 1665.11,-136 1665.11,-136 1501,-136 1501,-136 1501,-136 1501,-151.85 1501,-151.85"/>
<polygon fill="black" stroke="black" points="1497.5,-151.85 1501,-161.85 1504.5,-151.85 1497.5,-151.85"/>
</g>
<!-- UserService -->
<g id="node31" class="node">
<title>UserService</title>
<ellipse fill="#fdb462" stroke="black" cx="2652" cy="-256" rx="58.44" ry="18"/>
<text text-anchor="middle" x="2652" y="-251.8" font-family="Times,serif" font-size="14.00">UserService</text>
</g>
<!-- UserService&#45;&gt;UserModule -->
<g id="edge32" class="edge">
<title>UserService&#45;&gt;UserModule</title>
<path fill="none" stroke="black" d="M2652,-237.97C2652,-217.23 2652,-186 2652,-186 2652,-186 1928.16,-186 1928.16,-186"/>
<polygon fill="black" stroke="black" points="1928.16,-182.5 1918.16,-186 1928.16,-189.5 1928.16,-182.5"/>
</g>
</g>
</svg>
